<svg width="100" height="100" fill="none" xmlns="http://www.w3.org/2000/svg"><g clip-path="url(#clip0)"><path d="M50 100c27.614 0 50-22.386 50-50S77.614 0 50 0 0 22.386 0 50s22.386 50 50 50z" fill="#E24C4B"/><path d="M100 50c0 27.5-22.5 50-50 50-15.938 0-30-7.187-39.063-18.75 8.438 6.875 19.375 10.938 31.25 10.938 27.5 0 50-22.5 50-50 0-11.875-4.062-22.813-10.937-31.25C92.813 20 100 34.062 100 50z" fill="#D1403F"/><path d="M72.813 72.813c-1.875 1.874-5 1.874-6.875 0L50 56.875 34.063 72.813c-1.875 1.874-5 1.874-6.875 0-1.875-1.875-1.875-5 0-6.876L43.125 50 27.188 34.063c-1.875-1.875-1.875-5 0-6.875s5-1.875 6.875 0L50 43.125l15.938-15.937c1.874-1.875 5-1.875 6.875 0 1.874 1.875 1.874 5 0 6.875L56.875 50l15.938 15.938c1.874 1.874 1.874 5 0 6.875z" fill="#fff"/></g><defs><clipPath id="clip0"><path fill="#fff" d="M0 0h100v100H0z"/></clipPath></defs></svg>