<svg width="504" height="512" fill="none" xmlns="http://www.w3.org/2000/svg"><path d="M87.998 144.571l-.252-.252L.364 502.58l98.063-37.108a191.5 191.5 0 01-53.425-117.388l-1.706-20.805 22.178-90.998a238.803 238.803 0 002.602 11.089c20.63 78.499 78.072 142.105 154.069 170.6.338.115.682.21 1.026.303l101.027-38.227-.01-.01c-29.538 10.295-93.871-23.713-153.083-82.925-58.852-58.852-92.806-122.763-83.107-152.54zM332.381 375.228c.222-.205.44-.414.655-.628 5.219-5.22 7.532-12.903 7.237-22.426.3 9.537-2.013 17.23-7.238 22.456-.215.203-.433.403-.654.598z" fill="#000"/><path d="M315.122 382.997a83.61 83.61 0 01-34.735-6.892L6.079 479.839.364 503.271l98.53-37.285 125.323-47.418 91.758-34.718-.853-.853zM418.335 315.61a8.763 8.763 0 01-2.994-.537 263.633 263.633 0 00-135.73-13.187l-30.469 5.075a8.531 8.531 0 01-9.65-7.24 8.529 8.529 0 016.835-9.581l30.478-5.118a280.889 280.889 0 01144.524 14.032 8.53 8.53 0 01-2.994 16.556zM264.795 264.43a8.53 8.53 0 01-3.668-16.207l179.13-85.3a8.53 8.53 0 0111.37 4.035 8.53 8.53 0 01-4.034 11.37l-179.131 85.3a8.506 8.506 0 01-3.667.802zM165.045 247.37a8.392 8.392 0 01-3.276-.657 8.529 8.529 0 01-4.589-11.156v-.001l12.403-29.761a238.612 238.612 0 0012.735-144.234 8.53 8.53 0 1116.65-3.702 255.554 255.554 0 01-13.648 154.504l-12.411 29.761a8.528 8.528 0 01-7.864 5.246zM460.985 349.73c9.422 0 17.06-7.638 17.06-17.06 0-9.422-7.638-17.06-17.06-17.06-9.422 0-17.06 7.638-17.06 17.06 0 9.422 7.638 17.06 17.06 17.06zM256.265 110.89c9.422 0 17.06-7.638 17.06-17.06 0-9.422-7.638-17.06-17.06-17.06-9.422 0-17.06 7.638-17.06 17.06 0 9.422 7.638 17.06 17.06 17.06zM179.494 34.12c-9.422 0-17.06-7.637-17.06-17.06 0-9.422 7.638-17.06 17.06-17.06 9.423 0 17.06 7.638 17.06 17.06 0 9.423-7.637 17.06-17.06 17.06zM418.335 68.24a8.53 8.53 0 01-8.53-8.53v-8.53a8.53 8.53 0 0117.06 0v8.53a8.53 8.53 0 01-8.53 8.53zM418.335 25.59a8.53 8.53 0 01-8.53-8.53V8.53a8.53 8.53 0 0117.06 0v8.53a8.53 8.53 0 01-8.53 8.53zM443.925 42.65h-8.53a8.53 8.53 0 010-17.06h8.53a8.53 8.53 0 010 17.06zM401.275 42.65h-8.53a8.53 8.53 0 010-17.06h8.53a8.53 8.53 0 010 17.06z" fill="#000"/><path d="M224.217 418.568c-.682-.214-1.39-.367-2.072-.598a249.656 249.656 0 01-24.089-10.602L85.17 450.077a191.038 191.038 0 0013.724 15.909l125.323-47.418zM358.625 102.181v42.829h-42.829v-42.829h42.829zM205.084 255.9a8.53 8.53 0 01-5.706-14.867l85.3-76.771a8.531 8.531 0 0111.413 12.676l-85.3 76.77a8.529 8.529 0 01-5.707 2.192zM452.455 221.78a8.53 8.53 0 01-8.53-8.53v-8.53a8.53 8.53 0 0117.06 0v8.53a8.53 8.53 0 01-8.53 8.53zM482.617 209.284a8.47 8.47 0 01-6.031-2.499l-6.031-6.031a8.532 8.532 0 01.209-12.062 8.533 8.533 0 0111.853 0l6.031 6.031a8.53 8.53 0 01-6.031 14.561zM495.105 179.13h-8.53a8.53 8.53 0 110-17.06h8.53a8.53 8.53 0 110 17.06zM476.586 155.007a8.53 8.53 0 01-6.031-14.56l6.031-6.031a8.53 8.53 0 0112.062 12.061l-6.031 6.031a8.53 8.53 0 01-6.031 2.499zM452.455 145.01a8.53 8.53 0 01-8.53-8.53v-8.53a8.53 8.53 0 1117.06 0v8.53a8.53 8.53 0 01-8.53 8.53zM428.323 155.007c-2.262 0-4.431-.9-6.03-2.499l-6.031-6.031c-3.272-3.388-3.18-8.789.209-12.061a8.531 8.531 0 0111.852 0l6.031 6.031a8.53 8.53 0 01-6.031 14.56zM43.014 8.53l13.18 26.707 29.47 4.282L64.34 60.308l5.033 29.352-26.358-13.861-26.357 13.86 5.032-29.35L.364 39.52l29.471-4.283L43.015 8.53zM500.939 462.037a59.202 59.202 0 00-26.153-34.47l-3.514-5.272a128.72 128.72 0 00-85.65-55.385 8.53 8.53 0 00-9.649 7.24 8.529 8.529 0 006.834 9.581 111.601 111.601 0 0165.093 36.287 50.325 50.325 0 00-34.12 23.432c-9.187 16.453-3.296 37.237 13.157 46.424 16.454 9.187 37.238 3.296 46.425-13.157a49.47 49.47 0 005.536-21.897 41.677 41.677 0 011.868 44.296 8.531 8.531 0 1014.893 8.309 59.324 59.324 0 005.28-45.388zm-42.453 6.354c-4.553 8.25-14.931 11.246-23.18 6.693-8.249-4.553-11.245-14.931-6.693-23.179l.077-.139a31.963 31.963 0 0123.099-15.029 8.663 8.663 0 014.265.989c7.2 4.018 7.584 21.436 2.432 30.665z" fill="#000"/></svg>