<svg width="512" height="512" fill="none" xmlns="http://www.w3.org/2000/svg"><path d="M259.548 212.696c-66.116-66.108-138.613-100.799-161.934-77.487a23.317 23.317 0 00-5.493 9.486l-.375-.376-22.272 91.271-22.178 90.998-26.29 107.752-16.642 68.24 98.53-37.285 125.323-47.418 99.981-37.831-.12-.119a23.291 23.291 0 008.957-5.297c23.321-23.322-11.371-95.818-77.487-161.934z" fill="url(#paint0_linear)"/><path d="M259.547 212.669c-66.114-66.113-138.612-100.806-161.93-77.488-23.318 23.318 11.374 95.817 77.488 161.93 66.114 66.114 138.612 100.807 161.93 77.489 23.318-23.318-11.374-95.817-77.488-161.931z" fill="#D1E3EE"/><path d="M319.122 382.997a83.61 83.61 0 01-34.735-6.892l-81.717 30.921-125.366 47.376-67.225 25.437-5.715 23.432 98.53-37.285 125.323-47.418 91.758-34.718-.853-.853z" fill="#B21D48"/><path d="M422.335 315.61a8.772 8.772 0 01-2.994-.537 263.63 263.63 0 00-135.729-13.187l-30.47 5.075a8.53 8.53 0 01-2.815-16.821l30.478-5.118a280.889 280.889 0 01144.524 14.032 8.53 8.53 0 01-2.994 16.556zM268.795 264.43a8.53 8.53 0 01-3.668-16.207l179.13-85.3a8.53 8.53 0 0111.37 4.035 8.53 8.53 0 01-4.034 11.37l-179.131 85.3a8.506 8.506 0 01-3.667.802zM169.045 247.37a8.395 8.395 0 01-3.276-.657 8.529 8.529 0 01-4.589-11.156v-.001l12.403-29.761a238.605 238.605 0 0012.735-144.234 8.53 8.53 0 1116.651-3.702 255.569 255.569 0 01-13.648 154.504l-12.411 29.761a8.53 8.53 0 01-7.865 5.246z" fill="#FFBF41"/><path d="M464.985 349.73c9.422 0 17.06-7.638 17.06-17.06 0-9.422-7.638-17.06-17.06-17.06-9.422 0-17.06 7.638-17.06 17.06 0 9.422 7.638 17.06 17.06 17.06z" fill="#D5557E"/><path d="M260.264 110.89c9.422 0 17.06-7.638 17.06-17.06 0-9.422-7.638-17.06-17.06-17.06-9.422 0-17.06 7.638-17.06 17.06 0 9.422 7.638 17.06 17.06 17.06z" fill="#DD95C1"/><path d="M183.495 34.12c-9.423 0-17.06-7.637-17.06-17.06 0-9.422 7.637-17.06 17.06-17.06 9.422 0 17.06 7.638 17.06 17.06 0 9.423-7.638 17.06-17.06 17.06z" fill="#7FCCCB"/><path d="M422.335 68.24a8.53 8.53 0 01-8.53-8.53v-8.53a8.53 8.53 0 0117.06 0v8.53a8.53 8.53 0 01-8.53 8.53zM422.335 25.59a8.53 8.53 0 01-8.53-8.53V8.53a8.53 8.53 0 0117.06 0v8.53a8.53 8.53 0 01-8.53 8.53zM447.925 42.65h-8.53a8.53 8.53 0 010-17.06h8.53a8.53 8.53 0 010 17.06zM405.275 42.65h-8.53a8.53 8.53 0 010-17.06h8.53a8.53 8.53 0 010 17.06z" fill="#FF4B2B"/><path d="M72.076 247.37a238.803 238.803 0 01-2.602-11.089l-22.178 90.998 1.706 20.805a191.499 191.499 0 0053.884 117.859l125.331-47.375c-.682-.214-1.39-.367-2.072-.598-75.997-28.495-133.44-92.101-154.07-170.6z" fill="#fff"/><path d="M228.217 418.568c-.682-.214-1.39-.367-2.073-.598a249.638 249.638 0 01-24.088-10.602L89.169 450.077a191.091 191.091 0 0013.725 15.909l125.323-47.418z" fill="#F6F6E7"/><path d="M362.624 102.181v42.829h-42.829v-42.829h42.829z" fill="#C9DA53"/><path d="M209.085 255.9a8.53 8.53 0 01-5.707-14.868l85.3-76.77a8.531 8.531 0 0111.413 12.676l-85.3 76.77a8.528 8.528 0 01-5.706 2.192z" fill="#FFBF41"/><path d="M456.455 221.78a8.53 8.53 0 01-8.53-8.53v-8.53a8.53 8.53 0 0117.06 0v8.53a8.53 8.53 0 01-8.53 8.53zM486.617 209.284a8.474 8.474 0 01-6.031-2.499l-6.03-6.031a8.53 8.53 0 0112.061-12.062l6.031 6.031a8.53 8.53 0 01-6.031 14.561zM499.105 179.13h-8.53a8.53 8.53 0 110-17.06h8.53a8.53 8.53 0 110 17.06zM480.587 155.007a8.53 8.53 0 01-6.031-14.56l6.031-6.031a8.529 8.529 0 0112.061.209 8.531 8.531 0 010 11.852l-6.031 6.031a8.529 8.529 0 01-6.03 2.499zM456.455 145.01a8.53 8.53 0 01-8.53-8.53v-8.53a8.53 8.53 0 1117.06 0v8.53a8.53 8.53 0 01-8.53 8.53zM432.323 155.007c-2.262 0-4.431-.9-6.03-2.499l-6.031-6.031a8.529 8.529 0 01.209-12.061 8.531 8.531 0 0111.852 0l6.031 6.031a8.53 8.53 0 01-6.031 14.56zM47.014 8.53l13.18 26.707 29.47 4.282L68.34 60.308l5.033 29.352-26.358-13.861-26.357 13.86 5.032-29.35L4.364 39.52l29.471-4.283L47.015 8.53z" fill="#FFDB43"/><path d="M504.939 462.037a59.206 59.206 0 00-26.153-34.47l-3.514-5.272a128.723 128.723 0 00-85.65-55.385 8.531 8.531 0 00-9.65 7.24 8.529 8.529 0 006.835 9.581 111.598 111.598 0 0165.092 36.287 50.329 50.329 0 00-34.12 23.432c-9.186 16.453-3.295 37.237 13.158 46.424 16.453 9.187 37.238 3.296 46.424-13.157a49.47 49.47 0 005.536-21.897 41.68 41.68 0 011.869 44.296 8.53 8.53 0 1014.893 8.309 59.328 59.328 0 005.28-45.388zm-42.454 6.354c-4.553 8.25-14.931 11.246-23.179 6.693-8.25-4.553-11.246-14.93-6.693-23.179l.077-.139a31.961 31.961 0 0123.099-15.029 8.668 8.668 0 014.265.989c7.199 4.018 7.583 21.436 2.431 30.665z" fill="#2BB3CE"/><defs><linearGradient id="paint0_linear" x1="174.331" y1="127.95" x2="174.331" y2="502.58" gradientUnits="userSpaceOnUse"><stop stop-color="#FF4B2B"/><stop offset="1" stop-color="#FF416C"/></linearGradient></defs></svg>