<svg width="419" height="227" fill="none" xmlns="http://www.w3.org/2000/svg"><g clip-path="url(#clip0)"><path d="M308.812 153.911h8.995c6.074 0 10.763 6.595 7.227 13.037-1.307 2.378-3.844 3.835-6.612 3.835h-1.614c-3.153 0-5.766 2.608-5.766 5.829h6.765c7.919 0 14.377-6.519 14.223-14.495-.154-7.746-6.612-13.958-14.377-13.958h-14.607v53.378h5.766v-47.626zm40.055 19.94c-2.153-1.764-4.997-2.761-7.996-2.761-7.227 0-12.993 5.752-12.993 12.961v4.525c0 7.133 5.766 12.961 12.993 12.961 2.691 0 5.151-.843 7.227-2.224v2.224h5.766V171.09c-2.153 0-3.998 1.074-4.997 2.761zm-.769 14.725c0 3.988-3.229 7.286-7.227 7.286s-7.303-3.298-7.303-7.286v-4.525c0-3.988 3.305-7.286 7.303-7.286 3.998 0 7.227 3.298 7.227 7.286v4.525zm22.065-17.486c-3.075 0-5.843.997-8.073 2.761-.999-1.687-2.844-2.761-4.92-2.761v30.447a5.67 5.67 0 005.689-5.675v-11.657c0-4.372 3.614-7.44 7.842-7.44 2.537 0 4.536-1.917 4.613-4.525v-.076c-1.615-.691-3.306-1.074-5.151-1.074zm15.683 23.161c-1.691-1.303-2.767-3.451-2.767-5.828v-11.581h5.151v-4.602c0-.613-.462-1.15-1.153-1.15h-3.998v-8.973h-5.766v8.973h-1.461v5.752h1.461v11.811c0 6.825 5.381 12.424 12.147 12.884 0-2.837-1.384-5.445-3.614-7.286zm27.293-17.716v11.964c0 4.142-3.306 7.133-7.38 7.133-3.921-.154-6.92-3.451-6.92-7.363V170.86a5.67 5.67 0 00-5.689 5.675v11.658c0 7.285 5.766 13.114 13.07 13.114 2.537 0 4.92-.843 6.919-2.147v13.805c0 3.911-2.998 7.209-6.842 7.516-2.691 0-4.921-.844-6.535-3.068-1.615-2.301-4.152-3.681-6.919-3.681h-.154c.461 7.055 6.227 12.424 13.3 12.424 7.15-.077 12.916-5.906 12.916-13.038V170.86c-3.152 0-5.766 2.531-5.766 5.675z" fill="url(#paint0_linear)"/><path d="M150.456 207.443c-2.051 0-3.639-.627-4.767-1.879-1.128-1.253-1.691-3.081-1.691-5.484 0-2.659.64-5.701 1.922-9.126 1.281-3.426 2.895-6.928 4.843-10.507 1.948-3.579 4.639-8.309 8.073-14.189l2.537-4.295a27.386 27.386 0 01-9.764-5.752c-2.87-2.607-5.305-5.828-7.304-9.663-.154-.256-.231-.562-.231-.92 0-.87.346-1.777 1.038-2.723.692-.946 1.448-1.419 2.268-1.419.923 0 1.692.639 2.307 1.918 4.51 9.101 8.918 14.367 13.223 15.798 2.307-4.09 4.728-7.055 7.266-8.896 2.537-1.841 5.01-2.761 7.418-2.761 1.538 0 2.96.371 4.267 1.112 1.307.741 2.332 1.713 3.076 2.914.743 1.202 1.114 2.442 1.114 3.72 0 2.761-1.422 4.845-4.266 6.251-2.845 1.406-6.189 2.109-10.033 2.109-.615 0-1.487-.051-2.614-.154-4.921 7.721-9.072 14.687-12.455 20.899-3.383 6.212-5.074 10.878-5.074 13.997 0 1.738.692 2.607 2.076 2.607 4.407 0 9.533-3.425 15.376-10.277 5.843-6.851 11.032-14.878 15.568-24.081s7.163-16.745 7.88-22.625c.052-.204.077-.537.077-.997l-.077-1.61c0-.716.18-1.228.539-1.534.358-.307 1.101-.46 2.229-.46 1.64 0 2.973.524 3.998 1.572 1.025 1.048 1.537 2.543 1.537 4.486 0 .921-.102 1.79-.307 2.608-2.204 8.385-6.061 17.23-11.571 26.536-5.509 9.305-11.724 17.102-18.643 23.391-6.919 6.289-13.531 9.434-19.835 9.434zm20.142-46.17c.82.102 1.461.154 1.922.154 2.666 0 4.998-.588 6.997-1.764 1.998-1.176 2.998-2.736 2.998-4.679 0-.664-.18-1.24-.538-1.725-.359-.486-.82-.729-1.384-.729-1.333 0-2.883.703-4.651 2.109-1.769 1.406-3.55 3.618-5.344 6.634zm41.9-2.531c-1.999 0-2.998-.767-2.998-2.301 0-.92.384-1.917 1.153-2.991.769-1.073 1.768-1.994 2.999-2.761 1.23-.766 2.511-1.15 3.844-1.15 2.152 0 3.229.741 3.229 2.224 0 .869-.41 1.866-1.231 2.991-.82 1.125-1.87 2.071-3.152 2.838-1.281.767-2.562 1.15-3.844 1.15zm-22.449 42.795c-2.255 0-3.383-1.278-3.383-3.834 0-2.352.897-5.548 2.691-9.587 1.794-4.039 4.075-8.232 6.843-12.578 2.767-4.346 5.484-8.129 8.149-11.35.82-1.023 2.05-1.534 3.69-1.534 1.077 0 2.038.255 2.883.767.846.511 1.269 1.15 1.269 1.917 0 .613-.282 1.227-.846 1.841-2.204 2.351-4.69 5.496-7.457 9.433-2.768 3.937-5.113 7.733-7.035 11.389-1.922 3.656-2.883 6.25-2.883 7.784 0 .921.384 1.381 1.153 1.381 1.077 0 2.704-1.074 4.882-3.221 2.179-2.148 4.434-4.768 6.766-7.861 2.332-3.094 4.19-5.868 5.574-8.322.615-.102 1.14-.051 1.576.154.435.204.833.562 1.191 1.073-3.69 6.136-7.726 11.428-12.108 15.876-4.383 4.448-8.701 6.672-12.955 6.672zm15.146-5.905c-1.282-1.892-1.922-3.86-1.922-5.906 0-1.84.499-3.387 1.499-4.639.999-1.253 2.345-1.905 4.036-1.956 4.1-7.005 7.996-12.361 11.686-16.067 3.69-3.707 7.073-5.561 10.148-5.561 1.333 0 2.409.396 3.229 1.189.82.792 1.23 1.802 1.23 3.029 0 .665-.064 1.112-.192 1.343-.128.23-.346.409-.653.536a6.54 6.54 0 00-.846.422c-2.101 1.33-3.588 3.183-4.459 5.56-.871 2.378-1.307 5.765-1.307 10.162 0 3.528-.59 6.66-1.768 9.395-1.179 2.736-2.73 4.845-4.652 6.328-1.922 1.482-3.985 2.224-6.189 2.224-1.742 0-3.459-.499-5.151-1.496-1.691-.997-3.254-2.518-4.689-4.563zm8.457 1.61c2.203 0 3.985-1.431 5.343-4.294 1.358-2.864 2.037-6.11 2.037-9.74 0-2.506.103-4.781.308-6.826.205-2.045.307-3.221.307-3.528-1.64.92-3.447 2.62-5.42 5.1-1.973 2.48-4.216 5.611-6.727 9.395l-2.23 3.298c.052 1.073.41 2.122 1.077 3.144a8.453 8.453 0 002.46 2.493c.974.639 1.922.958 2.845.958zm20.988 4.295c-3.844 0-5.766-1.508-5.766-4.525 0-1.994.846-4.729 2.537-8.206 2.511-5.164 4.997-9.944 7.457-14.342 2.461-4.397 5.433-9.152 8.919-14.265h-2.691c-.462 0-.692-.255-.692-.766 0-.461.179-.946.538-1.458.359-.511.769-.792 1.23-.843h3.767a247.628 247.628 0 019.841-12.962c.769-.971 1.896-1.457 3.383-1.457.974 0 1.832.243 2.575.729.743.486 1.115 1.086 1.115 1.802 0 .563-.307 1.202-.923 1.918-1.998 2.249-4.612 5.573-7.841 9.97h6.073c.41 0 .615.281.615.843 0 .512-.179 1.01-.538 1.496-.359.486-.82.728-1.384.728h-6.919c-5.074 7.21-9.597 14.304-13.569 21.283-3.973 6.979-5.959 11.696-5.959 14.15 0 1.074.41 1.61 1.23 1.61 1.077 0 2.73-1.15 4.959-3.451 2.23-2.301 4.523-5.01 6.881-8.129 2.358-3.119 4.126-5.727 5.305-7.823 1.179-.205 2.101.204 2.767 1.227-9.481 14.981-17.118 22.471-22.91 22.471zm16.914 0c-2.255 0-3.883-.498-4.882-1.495-1-.997-1.499-2.442-1.499-4.333 0-1.79.384-3.861 1.153-6.213 1.076-3.476 3.075-7.286 5.997-11.427 2.921-4.141 6.163-7.644 9.725-10.507 3.562-2.863 6.855-4.295 9.879-4.295 2.665 0 4.818 1.176 6.458 3.528.256-.409.923-1.304 1.999-2.684.615-.818 1.538-1.227 2.768-1.227 1.076 0 2.101.332 3.075.997.974.664 1.461 1.406 1.461 2.224 0 .409-.103.741-.308.997-3.639 4.448-7.265 9.753-10.878 15.914-3.614 6.161-5.421 10.392-5.421 12.693 0 1.022.411 1.533 1.231 1.533 1.076 0 2.729-1.15 4.958-3.451 2.23-2.301 4.524-5.01 6.881-8.129 2.358-3.119 4.126-5.727 5.305-7.823 1.179-.205 2.101.204 2.768 1.227-9.482 14.981-17.119 22.471-22.911 22.471-1.947 0-3.447-.409-4.497-1.227-1.051-.818-1.576-2.019-1.576-3.604 0-1.074.333-2.531.999-4.372-1.384 2.147-3.357 4.218-5.92 6.212-2.562 1.994-4.818 2.991-6.765 2.991zm3.383-6.135c1.025.255 2.947-1.215 5.766-4.41 2.819-3.196 5.753-6.902 8.802-11.121 3.05-4.218 5.395-7.605 7.035-10.162-.461-1.533-1.333-2.3-2.614-2.3-1.999 0-4.677 1.585-8.034 4.755-3.357 3.17-6.343 6.8-8.957 10.89-2.614 4.09-3.92 7.286-3.92 9.587 0 1.483.64 2.403 1.922 2.761zm-236.793 3.681c.102-.307.205-.537.307-.69 5.023-8.334 13.378-23.801 25.063-46.4l2.384-4.601c.41-.767 1.179-1.151 2.306-1.151.769 0 1.487.166 2.153.499.666.332 1.102.754 1.307 1.265.102.205.064.563-.116 1.074-.179.511-.704 1.585-1.576 3.221l-10.378 20.094c3.28-.972 6.368-2.595 9.264-4.87 2.896-2.276 5.176-4.806 6.842-7.593 1.666-2.786 2.396-5.356 2.191-7.708-.154-2.198-1.089-3.911-2.806-5.138-1.717-1.227-3.831-1.841-6.343-1.841-2.614 0-5.227.678-7.841 2.033s-4.831 3.412-6.65 6.173c-1.82 2.761-2.858 6.085-3.114 9.971 0 .46-.308.69-.923.69s-1.204-.205-1.768-.614c-.564-.409-.846-.92-.846-1.534.308-4.294 1.576-8.027 3.806-11.197s4.971-5.573 8.226-7.209c3.255-1.636 6.522-2.454 9.802-2.454 3.793 0 6.958 1.099 9.495 3.298 2.537 2.198 3.806 5.343 3.806 9.433 0 2.403-.667 4.985-2 7.746-1.332 2.761-3.203 5.394-5.611 7.899a29.377 29.377 0 01-8.304 6.059c2.41.051 4.613.933 6.612 2.646 1.999 1.713 2.973 4.666 2.922 8.858-.052 4.295-1.423 8.296-4.114 12.003-2.69 3.707-6.188 6.659-10.494 8.858-4.305 2.198-8.815 3.298-13.53 3.298-5.895 0-11.354-1.905-16.376-5.714-5.023-3.809-8.919-9.727-11.686-17.755a2.882 2.882 0 01-.154-.92c0-1.278 1.102-2.812 3.306-4.601.717-.563 1.46-.844 2.23-.844 1.178 0 1.947.511 2.306 1.534 2.614 7.209 6.048 12.603 10.302 16.182zm4.459 2.991c2.46 1.227 5.125 1.841 7.995 1.841 3.486 0 6.779-.908 9.88-2.723a21.069 21.069 0 007.457-7.324c1.87-3.068 2.806-6.34 2.806-9.817 0-1.994-.73-3.515-2.19-4.563-1.462-1.048-3.268-1.572-5.42-1.572-1.334 0-2.64.217-3.922.652-1.281.434-2.383 1.035-3.306 1.802-2.409 4.857-5.843 11.274-10.302 19.25-.615 1.125-1.614 1.943-2.998 2.454zm44.668-.307c-4.408 0-6.612-2.275-6.612-6.825 0-3.17 1.025-7.312 3.075-12.425a42.339 42.339 0 015.497-9.778c2.28-3.042 4.741-5.484 7.38-7.324 2.64-1.841 5.164-2.761 7.573-2.761 2.153 0 3.768.741 4.844 2.224 1.076 1.482 1.614 3.425 1.614 5.828 0 2.608-.615 5.343-1.845 8.207-3.075 7.209-6.509 12.82-10.302 16.834-3.793 4.014-7.534 6.02-11.224 6.02zm-.692-3.374c1.64 0 3.998-2.071 7.073-6.212 3.075-4.142 5.855-8.743 8.341-13.805 2.486-5.062 3.729-8.667 3.729-10.814 0-1.074-.359-1.611-1.076-1.611-1.845 0-4.28 2.058-7.304 6.174-3.024 4.116-5.753 8.705-8.188 13.767-2.434 5.062-3.652 8.692-3.652 10.89 0 1.074.36 1.611 1.077 1.611zm26.908 3.144c-2.255 0-3.882-.498-4.882-1.495-1-.997-1.5-2.442-1.5-4.333 0-1.79.385-3.861 1.154-6.213 1.076-3.476 3.075-7.286 5.997-11.427 2.921-4.141 6.163-7.644 9.725-10.507 3.562-2.863 6.855-4.295 9.879-4.295 2.666 0 4.818 1.176 6.458 3.528.257-.409.923-1.304 1.999-2.684.615-.818 1.538-1.227 2.768-1.227 1.076 0 2.101.332 3.075.997.974.664 1.461 1.406 1.461 2.224 0 .409-.103.741-.308.997-3.639 4.448-7.265 9.753-10.878 15.914-3.614 6.161-5.42 10.392-5.42 12.693 0 1.022.41 1.533 1.23 1.533 1.076 0 2.729-1.15 4.959-3.451 2.229-2.301 4.523-5.01 6.88-8.129 2.358-3.119 4.126-5.727 5.305-7.823 1.179-.205 2.102.204 2.768 1.227-9.482 14.981-17.119 22.471-22.911 22.471-1.947 0-3.446-.409-4.497-1.227-1.051-.818-1.576-2.019-1.576-3.604 0-1.074.333-2.531.999-4.372-1.384 2.147-3.357 4.218-5.92 6.212-2.562 1.994-4.817 2.991-6.765 2.991zm3.383-6.135c1.025.255 2.947-1.215 5.766-4.41 2.819-3.196 5.753-6.902 8.803-11.121 3.049-4.218 5.394-7.605 7.034-10.162-.461-1.533-1.332-2.3-2.614-2.3-1.999 0-4.677 1.585-8.034 4.755-3.357 3.17-6.342 6.8-8.956 10.89-2.614 4.09-3.921 7.286-3.921 9.587 0 1.483.64 2.403 1.922 2.761z" fill="url(#paint1_linear)"/></g><g clip-path="url(#clip1)"><path d="M211.037 46.959c-14.597-14.595-30.603-22.254-35.752-17.108a5.146 5.146 0 00-1.213 2.095l-.083-.083-4.917 20.15-4.896 20.091-5.804 23.79-3.675 15.066 21.754-8.232 27.669-10.47 22.073-8.351-.026-.027a5.132 5.132 0 001.977-1.17c5.149-5.148-2.51-21.154-17.107-35.751z" fill="url(#paint2_linear)"/><path d="M211.037 46.953c-14.597-14.596-30.603-22.256-35.751-17.108-5.148 5.148 2.511 21.155 17.108 35.751 14.596 14.597 30.603 22.257 35.751 17.108 5.148-5.148-2.511-21.154-17.108-35.75z" fill="#D1E3EE"/><path d="M224.19 84.558a18.458 18.458 0 01-7.669-1.521l-18.042 6.826-27.678 10.46-14.842 5.616-1.262 5.173 21.754-8.231 27.669-10.47 20.258-7.664-.188-.189z" fill="#B21D48"/><path d="M246.977 69.68c-.226 0-.45-.04-.661-.118a58.209 58.209 0 00-29.967-2.912l-6.727 1.12a1.883 1.883 0 01-.621-3.713l6.729-1.13a62.018 62.018 0 0131.908 3.098 1.884 1.884 0 01-.661 3.656zM213.078 58.381a1.883 1.883 0 01-.81-3.578l39.549-18.833a1.883 1.883 0 111.62 3.401l-39.549 18.833c-.253.118-.53.179-.81.177zM191.055 54.614a1.884 1.884 0 01-1.737-2.608l2.739-6.57a52.678 52.678 0 002.811-31.845 1.884 1.884 0 013.662-.884l.015.067a56.428 56.428 0 01-3.014 34.112l-2.74 6.57a1.883 1.883 0 01-1.736 1.158z" fill="#FFBF41"/><path d="M256.392 77.214a3.766 3.766 0 10.001-7.533 3.766 3.766 0 00-.001 7.533z" fill="#D5557E"/><path d="M211.195 24.482a3.767 3.767 0 100-7.534 3.767 3.767 0 000 7.534z" fill="#DD95C1"/><path d="M194.245 7.533a3.766 3.766 0 110-7.532 3.766 3.766 0 010 7.532z" fill="#7FCCCB"/><path d="M246.977 15.066a1.883 1.883 0 01-1.883-1.883V11.3a1.883 1.883 0 113.766 0v1.883c0 1.04-.843 1.883-1.883 1.883zM246.977 5.65a1.883 1.883 0 01-1.883-1.883V1.883a1.883 1.883 0 113.766 0v1.884c0 1.04-.843 1.883-1.883 1.883zM252.626 9.416h-1.883a1.884 1.884 0 110-3.766h1.883a1.883 1.883 0 010 3.766zM243.21 9.416h-1.883a1.884 1.884 0 110-3.766h1.883a1.883 1.883 0 010 3.766z" fill="#FF4B2B"/><path d="M169.646 54.614a52.43 52.43 0 01-.575-2.448l-4.896 20.09.376 4.594a42.28 42.28 0 0011.897 26.021l27.671-10.46c-.151-.047-.307-.08-.458-.131a55.211 55.211 0 01-34.015-37.666z" fill="#fff"/><path d="M204.119 92.412c-.151-.047-.307-.081-.458-.132a55.103 55.103 0 01-5.318-2.341l-24.923 9.43a42.231 42.231 0 003.03 3.512l27.669-10.47z" fill="#F6F6E7"/><path d="M233.794 22.56v9.455h-9.456V22.56h9.456z" fill="#C9DA53"/><path d="M199.895 56.498a1.882 1.882 0 01-1.259-3.283l18.832-16.95a1.884 1.884 0 012.52 2.8l-18.833 16.949a1.882 1.882 0 01-1.26.484z" fill="#FFBF41"/><path d="M254.51 48.965a1.883 1.883 0 01-1.883-1.883v-1.884a1.883 1.883 0 113.766 0v1.884c0 1.04-.843 1.883-1.883 1.883zM261.169 46.206c-.5.001-.979-.198-1.331-.552l-1.332-1.332a1.884 1.884 0 012.663-2.662l1.332 1.331a1.883 1.883 0 01-1.332 3.215zM263.927 39.548h-1.884a1.883 1.883 0 010-3.766h1.884a1.883 1.883 0 010 3.767zM259.838 34.223a1.884 1.884 0 01-1.332-3.215l1.332-1.331a1.883 1.883 0 012.663 2.662l-1.332 1.332a1.883 1.883 0 01-1.331.552zM254.51 32.016a1.883 1.883 0 01-1.883-1.884V28.25a1.883 1.883 0 113.766 0v1.883c0 1.04-.843 1.884-1.883 1.884zM249.182 34.223c-.5 0-.979-.2-1.332-.552l-1.331-1.332a1.883 1.883 0 012.663-2.663l1.331 1.332a1.883 1.883 0 01-1.331 3.215zM164.114 1.883l2.909 5.897 6.507.945-4.708 4.59 1.111 6.48-5.819-3.06-5.82 3.06 1.111-6.48-4.708-4.59 6.507-.945 2.91-5.897z" fill="#FFDB43"/><path d="M265.215 102.009a13.072 13.072 0 00-5.774-7.61l-.776-1.165a28.421 28.421 0 00-18.91-12.227 1.882 1.882 0 00-.621 3.713 24.642 24.642 0 0114.371 8.012 11.109 11.109 0 00-7.533 5.173 7.532 7.532 0 1013.154 7.345 10.917 10.917 0 001.222-4.835 9.201 9.201 0 01.413 9.78 1.883 1.883 0 103.288 1.834 13.096 13.096 0 001.166-10.02zm-9.373 1.403a3.766 3.766 0 11-6.578-3.67 7.054 7.054 0 015.099-3.32c.328-.008.652.067.942.22 1.59.886 1.674 4.732.537 6.77z" fill="#2BB3CE"/></g><defs><linearGradient id="paint0_linear" x1="303.046" y1="187.157" x2="418.905" y2="187.157" gradientUnits="userSpaceOnUse"><stop stop-color="#FF416C"/><stop offset=".978" stop-color="#FF4B2B"/></linearGradient><linearGradient id="paint1_linear" x1="0" y1="175.308" x2="292.224" y2="175.308" gradientUnits="userSpaceOnUse"><stop stop-color="#FF416C"/><stop offset=".978" stop-color="#FF4B2B"/></linearGradient><linearGradient id="paint2_linear" x1="192.223" y1="28.249" x2="192.223" y2="110.96" gradientUnits="userSpaceOnUse"><stop stop-color="#FF4B2B"/><stop offset="1" stop-color="#FF416C"/></linearGradient><clipPath id="clip0"><path fill="#fff" d="M0 139.416h419v86.664H0z"/></clipPath><clipPath id="clip1"><path fill="#fff" d="M153.733 0h113.04v113.04h-113.04z"/></clipPath></defs></svg>