<svg width="545" height="113" fill="none" xmlns="http://www.w3.org/2000/svg"><g clip-path="url(#clip0)"><path d="M401.677 18.9h11.7c7.9 0 14 8.6 9.4 17-1.7 3.1-5 5-8.6 5h-2.1c-4.1 0-7.5 3.4-7.5 7.6h8.8c10.3 0 18.7-8.5 18.5-18.9-.2-10.1-8.6-18.2-18.7-18.2h-19V81h7.5V18.9zm52.1 26c-2.8-2.3-6.5-3.6-10.4-3.6-9.4 0-16.9 7.5-16.9 16.9v5.9c0 9.3 7.5 16.9 16.9 16.9 3.5 0 6.7-1.1 9.4-2.9V81h7.5V41.3c-2.8 0-5.2 1.4-6.5 3.6zm-1 19.2c0 5.2-4.2 9.5-9.4 9.5s-9.5-4.3-9.5-9.5v-5.9c0-5.2 4.3-9.5 9.5-9.5s9.4 4.3 9.4 9.5v5.9zm28.7-22.8c-4 0-7.6 1.3-10.5 3.6-1.3-2.2-3.7-3.6-6.4-3.6V81c4.1 0 7.4-3.3 7.4-7.4V58.4c0-5.7 4.7-9.7 10.2-9.7 3.3 0 5.9-2.5 6-5.9v-.1c-2.1-.9-4.3-1.4-6.7-1.4zm20.4 30.2c-2.2-1.7-3.6-4.5-3.6-7.6V48.8h6.7v-6c0-.8-.6-1.5-1.5-1.5h-5.2V29.6h-7.5v11.7h-1.9v7.5h1.9v15.4c0 8.9 7 16.2 15.8 16.8 0-3.7-1.8-7.1-4.7-9.5zm35.5-23.1V64c0 5.4-4.3 9.3-9.6 9.3-5.1-.2-9-4.5-9-9.6V41c-4.1 0-7.4 3.3-7.4 7.4v15.2c0 9.5 7.5 17.1 17 17.1 3.3 0 6.4-1.1 9-2.8v18c0 5.1-3.9 9.4-8.9 9.8-3.5 0-6.4-1.1-8.5-4-2.1-3-5.4-4.8-9-4.8h-.2c.6 9.2 8.1 16.2 17.3 16.2 9.3-.1 16.8-7.7 16.8-17V41c-4.1 0-7.5 3.3-7.5 7.4z" fill="url(#paint0_linear)"/><path d="M195.7 88.7c-2.667 0-4.733-.817-6.2-2.45-1.467-1.633-2.2-4.017-2.2-7.15 0-3.467.833-7.433 2.5-11.9 1.667-4.467 3.767-9.033 6.3-13.7s6.033-10.833 10.5-18.5l3.3-5.6c-4.733-1.6-8.967-4.1-12.7-7.5-3.733-3.4-6.9-7.6-9.5-12.6-.2-.333-.3-.733-.3-1.2 0-1.133.45-2.317 1.35-3.55.9-1.233 1.883-1.85 2.95-1.85 1.2 0 2.2.833 3 2.5 5.867 11.867 11.6 18.733 17.2 20.6 3-5.333 6.15-9.2 9.45-11.6 3.3-2.4 6.517-3.6 9.65-3.6 2 0 3.85.483 5.55 1.45 1.7.967 3.033 2.233 4 3.8.967 1.567 1.45 3.183 1.45 4.85 0 3.6-1.85 6.317-5.55 8.15-3.7 1.833-8.05 2.75-13.05 2.75-.8 0-1.933-.067-3.4-.2-6.4 10.067-11.8 19.15-16.2 27.25-4.4 8.1-6.6 14.183-6.6 18.25 0 2.267.9 3.4 2.7 3.4 5.733 0 12.4-4.467 20-13.4s14.35-19.4 20.25-31.4S249.467 13.667 250.4 6c.067-.267.1-.7.1-1.3l-.1-2.1c0-.933.233-1.6.7-2 .467-.4 1.433-.6 2.9-.6 2.133 0 3.867.683 5.2 2.05 1.333 1.367 2 3.317 2 5.85 0 1.2-.133 2.333-.4 3.4-2.867 10.933-7.883 22.467-15.05 34.6-7.167 12.133-15.25 22.3-24.25 30.5s-17.6 12.3-25.8 12.3zm26.2-60.2c1.067.133 1.9.2 2.5.2 3.467 0 6.5-.767 9.1-2.3 2.6-1.533 3.9-3.567 3.9-6.1 0-.867-.233-1.617-.7-2.25-.467-.633-1.067-.95-1.8-.95-1.733 0-3.75.917-6.05 2.75s-4.617 4.717-6.95 8.65zm54.5-3.3c-2.6 0-3.9-1-3.9-3 0-1.2.5-2.5 1.5-3.9s2.3-2.6 3.9-3.6 3.267-1.5 5-1.5c2.8 0 4.2.967 4.2 2.9 0 1.133-.533 2.433-1.6 3.9-1.067 1.467-2.433 2.7-4.1 3.7-1.667 1-3.333 1.5-5 1.5zM247.2 81c-2.933 0-4.4-1.667-4.4-5 0-3.067 1.167-7.233 3.5-12.5s5.3-10.733 8.9-16.4c3.6-5.667 7.133-10.6 10.6-14.8 1.067-1.333 2.667-2 4.8-2 1.4 0 2.65.333 3.75 1s1.65 1.5 1.65 2.5c0 .8-.367 1.6-1.1 2.4-2.867 3.067-6.1 7.167-9.7 12.3-3.6 5.133-6.65 10.083-9.15 14.85-2.5 4.767-3.75 8.15-3.75 10.15 0 1.2.5 1.8 1.5 1.8 1.4 0 3.517-1.4 6.35-4.2 2.833-2.8 5.767-6.217 8.8-10.25 3.033-4.033 5.45-7.65 7.25-10.85.8-.133 1.483-.067 2.05.2.567.267 1.083.733 1.55 1.4-4.8 8-10.05 14.9-15.75 20.7-5.7 5.8-11.317 8.7-16.85 8.7zm19.7-7.7c-1.667-2.467-2.5-5.033-2.5-7.7 0-2.4.65-4.417 1.95-6.05 1.3-1.633 3.05-2.483 5.25-2.55 5.333-9.133 10.4-16.117 15.2-20.95 4.8-4.833 9.2-7.25 13.2-7.25 1.733 0 3.133.517 4.2 1.55 1.067 1.033 1.6 2.35 1.6 3.95 0 .867-.083 1.45-.25 1.75-.167.3-.45.533-.85.7-.4.167-.767.35-1.1.55-2.733 1.733-4.667 4.15-5.8 7.25-1.133 3.1-1.7 7.517-1.7 13.25 0 4.6-.767 8.683-2.3 12.25s-3.55 6.317-6.05 8.25c-2.5 1.933-5.183 2.9-8.05 2.9-2.267 0-4.5-.65-6.7-1.95-2.2-1.3-4.233-3.283-6.1-5.95zm11 2.1c2.867 0 5.183-1.867 6.95-5.6 1.767-3.733 2.65-7.967 2.65-12.7 0-3.267.133-6.233.4-8.9.267-2.667.4-4.2.4-4.6-2.133 1.2-4.483 3.417-7.05 6.65-2.567 3.233-5.483 7.317-8.75 12.25l-2.9 4.3c.067 1.4.533 2.767 1.4 4.1.867 1.333 1.933 2.417 3.2 3.25 1.267.833 2.5 1.25 3.7 1.25zm27.3 5.6c-5 0-7.5-1.967-7.5-5.9 0-2.6 1.1-6.167 3.3-10.7 3.267-6.733 6.5-12.967 9.7-18.7 3.2-5.733 7.067-11.933 11.6-18.6h-3.5c-.6 0-.9-.333-.9-1 0-.6.233-1.233.7-1.9.467-.667 1-1.033 1.6-1.1h4.9c4-5.667 8.267-11.3 12.8-16.9 1-1.267 2.467-1.9 4.4-1.9 1.267 0 2.383.317 3.35.95.967.633 1.45 1.417 1.45 2.35 0 .733-.4 1.567-1.2 2.5-2.6 2.933-6 7.267-10.2 13h7.9c.533 0 .8.367.8 1.1 0 .667-.233 1.317-.7 1.95-.467.633-1.067.95-1.8.95h-9c-6.6 9.4-12.483 18.65-17.65 27.75-5.167 9.1-7.75 15.25-7.75 18.45 0 1.4.533 2.1 1.6 2.1 1.4 0 3.55-1.5 6.45-4.5 2.9-3 5.883-6.533 8.95-10.6 3.067-4.067 5.367-7.467 6.9-10.2 1.533-.267 2.733.267 3.6 1.6C322.667 71.233 312.733 81 305.2 81zm22 0c-2.933 0-5.05-.65-6.35-1.95-1.3-1.3-1.95-3.183-1.95-5.65 0-2.333.5-5.033 1.5-8.1 1.4-4.533 4-9.5 7.8-14.9s8.017-9.967 12.65-13.7c4.633-3.733 8.917-5.6 12.85-5.6 3.467 0 6.267 1.533 8.4 4.6.333-.533 1.2-1.7 2.6-3.5.8-1.067 2-1.6 3.6-1.6 1.4 0 2.733.433 4 1.3s1.9 1.833 1.9 2.9c0 .533-.133.967-.4 1.3-4.733 5.8-9.45 12.717-14.15 20.75-4.7 8.033-7.05 13.55-7.05 16.55 0 1.333.533 2 1.6 2 1.4 0 3.55-1.5 6.45-4.5 2.9-3 5.883-6.533 8.95-10.6 3.067-4.067 5.367-7.467 6.9-10.2 1.533-.267 2.733.267 3.6 1.6C367.767 71.233 357.833 81 350.3 81c-2.533 0-4.483-.533-5.85-1.6-1.367-1.067-2.05-2.633-2.05-4.7 0-1.4.433-3.3 1.3-5.7-1.8 2.8-4.367 5.5-7.7 8.1-3.333 2.6-6.267 3.9-8.8 3.9zm4.4-8c1.333.333 3.833-1.583 7.5-5.75s7.483-9 11.45-14.5c3.967-5.5 7.017-9.917 9.15-13.25-.6-2-1.733-3-3.4-3-2.6 0-6.083 2.067-10.45 6.2-4.367 4.133-8.25 8.867-11.65 14.2-3.4 5.333-5.1 9.5-5.1 12.5 0 1.933.833 3.133 2.5 3.6zm-308 4.8c.133-.4.267-.7.4-.9 6.533-10.867 17.4-31.033 32.6-60.5l3.1-6c.533-1 1.533-1.5 3-1.5 1 0 1.933.217 2.8.65.867.433 1.433.983 1.7 1.65.133.267.083.733-.15 1.4-.233.667-.917 2.067-2.05 4.2L51.5 43c4.267-1.267 8.283-3.383 12.05-6.35 3.767-2.967 6.733-6.267 8.9-9.9 2.167-3.633 3.117-6.983 2.85-10.05-.2-2.867-1.417-5.1-3.65-6.7-2.233-1.6-4.983-2.4-8.25-2.4-3.4 0-6.8.883-10.2 2.65-3.4 1.767-6.283 4.45-8.65 8.05-2.367 3.6-3.717 7.933-4.05 13 0 .6-.4.9-1.2.9-.8 0-1.567-.267-2.3-.8-.733-.533-1.1-1.2-1.1-2 .4-5.6 2.05-10.467 4.95-14.6 2.9-4.133 6.467-7.267 10.7-9.4s8.483-3.2 12.75-3.2c4.933 0 9.05 1.433 12.35 4.3 3.3 2.867 4.95 6.967 4.95 12.3 0 3.133-.867 6.5-2.6 10.1-1.733 3.6-4.167 7.033-7.3 10.3a38.229 38.229 0 01-10.8 7.9c3.133.067 6 1.217 8.6 3.45 2.6 2.233 3.867 6.083 3.8 11.55-.067 5.6-1.85 10.817-5.35 15.65-3.5 4.833-8.05 8.683-13.65 11.55-5.6 2.867-11.467 4.3-17.6 4.3-7.667 0-14.767-2.483-21.3-7.45C8.867 81.183 3.8 73.467.2 63c-.133-.4-.2-.8-.2-1.2 0-1.667 1.433-3.667 4.3-6 .933-.733 1.9-1.1 2.9-1.1 1.533 0 2.533.667 3 2 3.4 9.4 7.867 16.433 13.4 21.1zm5.8 3.9c3.2 1.6 6.667 2.4 10.4 2.4 4.533 0 8.817-1.183 12.85-3.55 4.033-2.367 7.267-5.55 9.7-9.55C64.783 67 66 62.733 66 58.2c0-2.6-.95-4.583-2.85-5.95-1.9-1.367-4.25-2.05-7.05-2.05-1.733 0-3.433.283-5.1.85-1.667.567-3.1 1.35-4.3 2.35-3.133 6.333-7.6 14.7-13.4 25.1-.8 1.467-2.1 2.533-3.9 3.2zm58.1-.4c-5.733 0-8.6-2.967-8.6-8.9 0-4.133 1.333-9.533 4-16.2a55.251 55.251 0 017.15-12.75c2.967-3.967 6.167-7.15 9.6-9.55 3.433-2.4 6.717-3.6 9.85-3.6 2.8 0 4.9.967 6.3 2.9 1.4 1.933 2.1 4.467 2.1 7.6 0 3.4-.8 6.967-2.4 10.7-4 9.4-8.467 16.717-13.4 21.95-4.933 5.233-9.8 7.85-14.6 7.85zm-.9-4.4c2.133 0 5.2-2.7 9.2-8.1 4-5.4 7.617-11.4 10.85-18 3.233-6.6 4.85-11.3 4.85-14.1 0-1.4-.467-2.1-1.4-2.1-2.4 0-5.567 2.683-9.5 8.05C96.667 48.017 93.117 54 89.95 60.6c-3.167 6.6-4.75 11.333-4.75 14.2 0 1.4.467 2.1 1.4 2.1zm35 4.1c-2.933 0-5.05-.65-6.35-1.95-1.3-1.3-1.95-3.183-1.95-5.65 0-2.333.5-5.033 1.5-8.1 1.4-4.533 4-9.5 7.8-14.9s8.017-9.967 12.65-13.7c4.633-3.733 8.917-5.6 12.85-5.6 3.467 0 6.267 1.533 8.4 4.6.333-.533 1.2-1.7 2.6-3.5.8-1.067 2-1.6 3.6-1.6 1.4 0 2.733.433 4 1.3s1.9 1.833 1.9 2.9c0 .533-.133.967-.4 1.3-4.733 5.8-9.45 12.717-14.15 20.75-4.7 8.033-7.05 13.55-7.05 16.55 0 1.333.533 2 1.6 2 1.4 0 3.55-1.5 6.45-4.5 2.9-3 5.883-6.533 8.95-10.6 3.067-4.067 5.367-7.467 6.9-10.2 1.533-.267 2.733.267 3.6 1.6C162.167 71.233 152.233 81 144.7 81c-2.533 0-4.483-.533-5.85-1.6-1.367-1.067-2.05-2.633-2.05-4.7 0-1.4.433-3.3 1.3-5.7-1.8 2.8-4.367 5.5-7.7 8.1-3.333 2.6-6.267 3.9-8.8 3.9zm4.4-8c1.333.333 3.833-1.583 7.5-5.75s7.483-9 11.45-14.5c3.967-5.5 7.017-9.917 9.15-13.25-.6-2-1.733-3-3.4-3-2.6 0-6.083 2.067-10.45 6.2-4.367 4.133-8.25 8.867-11.65 14.2-3.4 5.333-5.1 9.5-5.1 12.5 0 1.933.833 3.133 2.5 3.6z" fill="url(#paint1_linear)"/></g><defs><linearGradient id="paint0_linear" x1="394.177" y1="62.25" x2="544.877" y2="62.25" gradientUnits="userSpaceOnUse"><stop stop-color="#FF416C"/><stop offset=".978" stop-color="#FF4B2B"/></linearGradient><linearGradient id="paint1_linear" x1="0" y1="46.8" x2="380.1" y2="46.8" gradientUnits="userSpaceOnUse"><stop stop-color="#FF416C"/><stop offset=".978" stop-color="#FF4B2B"/></linearGradient><clipPath id="clip0"><path fill="#fff" d="M0 0h545v113H0z"/></clipPath></defs></svg>