<svg width="100" height="100" fill="none" xmlns="http://www.w3.org/2000/svg"><g clip-path="url(#clip0)"><path d="M50 100c27.614 0 50-22.386 50-50S77.614 0 50 0 0 22.386 0 50s22.386 50 50 50z" fill="#8DC640"/><path d="M100 50c0 27.5-22.5 50-50 50-15.938 0-30-7.187-39.063-18.75 8.438 6.875 19.375 10.938 31.25 10.938 27.5 0 50-22.5 50-50 0-11.875-4.062-22.813-10.937-31.25C92.813 20 100 34.062 100 50z" fill="#7FB536"/><path d="M77.188 35.625l-32.5 35.625c-2.188 2.5-5.938 2.5-8.125 0l-13.75-15.312c-1.875-2.188-1.875-5.625.312-7.813 2.188-1.875 5.625-1.875 7.813.312l9.687 10.938 28.438-30.938c2.187-2.187 5.624-2.5 7.812-.312 2.188 1.875 2.188 5.625.313 7.5z" fill="#fff"/></g><defs><clipPath id="clip0"><path fill="#fff" d="M0 0h100v100H0z"/></clipPath></defs></svg>