<svg width="512" height="512" viewBox="0 0 512 512" fill="none" xmlns="http://www.w3.org/2000/svg">
<path d="M259.548 212.696C193.432 146.588 120.935 111.897 97.6143 135.209C95.0553 137.89 93.1723 141.141 92.121 144.695L91.7457 144.319L69.4738 235.59L47.2958 326.588L21.0063 434.34L4.36426 502.58L102.894 465.295L228.217 417.877L328.198 380.046L328.078 379.927C331.425 378.859 334.487 377.049 337.035 374.63C360.356 351.308 325.664 278.812 259.548 212.696Z" fill="url(#paint0_linear)"/>
<path d="M259.547 212.669C193.433 146.556 120.935 111.863 97.6167 135.181C74.2987 158.499 108.991 230.998 175.105 297.111C241.219 363.225 313.717 397.918 337.035 374.6C360.353 351.282 325.661 278.783 259.547 212.669Z" fill="#D1E3EE"/>
<path d="M319.122 382.997C307.184 383.206 295.34 380.856 284.387 376.105L202.67 407.026L77.3044 454.402L10.0794 479.839L4.36426 503.271L102.894 465.986L228.217 418.568L319.975 383.85L319.122 382.997Z" fill="#B21D48"/>
<path d="M422.335 315.61C421.314 315.607 420.301 315.425 419.341 315.073C376.037 298.85 329.228 294.301 283.612 301.886L253.142 306.961C248.479 307.626 244.158 304.385 243.493 299.721C242.85 295.215 245.858 290.998 250.327 290.14L280.805 285.022C329.377 276.951 379.217 281.791 425.329 299.054C429.763 300.647 432.065 305.532 430.472 309.966C429.241 313.39 425.974 315.657 422.335 315.61Z" fill="#FFBF41"/>
<path d="M268.795 264.43C264.084 264.403 260.287 260.561 260.315 255.85C260.334 252.598 262.2 249.64 265.127 248.223L444.257 162.923C448.511 160.897 453.601 162.704 455.627 166.958C457.653 171.212 455.847 176.303 451.593 178.328L272.462 263.628C271.315 264.165 270.062 264.439 268.795 264.43Z" fill="#FFBF41"/>
<path d="M169.045 247.37C167.92 247.372 166.806 247.15 165.769 246.713C161.421 244.9 159.366 239.905 161.18 235.557V235.556L173.583 205.795C192.666 160.197 197.115 109.797 186.318 61.5611C185.211 56.9815 188.027 52.3732 192.606 51.2664C197.185 50.1597 201.794 52.9756 202.9 57.5541C202.925 57.6554 202.947 57.7567 202.969 57.8591C214.535 109.531 209.766 163.519 189.321 212.363L176.91 242.124C175.585 245.299 172.485 247.367 169.045 247.37Z" fill="#FFBF41"/>
<path d="M464.985 349.73C474.407 349.73 482.045 342.092 482.045 332.67C482.045 323.248 474.407 315.61 464.985 315.61C455.563 315.61 447.925 323.248 447.925 332.67C447.925 342.092 455.563 349.73 464.985 349.73Z" fill="#D5557E"/>
<path d="M260.264 110.89C269.686 110.89 277.324 103.252 277.324 93.8301C277.324 84.4081 269.686 76.7701 260.264 76.7701C250.842 76.7701 243.204 84.4081 243.204 93.8301C243.204 103.252 250.842 110.89 260.264 110.89Z" fill="#DD95C1"/>
<path d="M183.495 34.12C174.072 34.12 166.435 26.4825 166.435 17.06C166.435 7.63756 174.072 0 183.495 0C192.917 0 200.555 7.63756 200.555 17.06C200.555 26.4825 192.917 34.12 183.495 34.12Z" fill="#7FCCCB"/>
<path d="M422.335 68.2401C417.624 68.2401 413.805 64.4208 413.805 59.7101V51.1801C413.805 46.4694 417.624 42.6501 422.335 42.6501C427.045 42.6501 430.865 46.4694 430.865 51.1801V59.7101C430.865 64.4208 427.046 68.2401 422.335 68.2401Z" fill="#FF4B2B"/>
<path d="M422.335 25.59C417.624 25.59 413.805 21.7707 413.805 17.06V8.53001C413.805 3.81931 417.624 0 422.335 0C427.045 0 430.865 3.81931 430.865 8.53001V17.06C430.865 21.7707 427.046 25.59 422.335 25.59Z" fill="#FF4B2B"/>
<path d="M447.925 42.65H439.395C434.685 42.65 430.865 38.8307 430.865 34.12C430.865 29.4093 434.685 25.59 439.395 25.59H447.925C452.636 25.59 456.455 29.4093 456.455 34.12C456.455 38.8307 452.637 42.65 447.925 42.65Z" fill="#FF4B2B"/>
<path d="M405.275 42.65H396.745C392.034 42.65 388.215 38.8307 388.215 34.12C388.215 29.4093 392.034 25.59 396.745 25.59H405.275C409.986 25.59 413.805 29.4093 413.805 34.12C413.805 38.8307 409.987 42.65 405.275 42.65Z" fill="#FF4B2B"/>
<path d="M72.0756 247.37C71.1202 243.719 70.2672 240.034 69.4739 236.281L47.2959 327.279L49.0019 348.084C52.7199 392.439 71.7738 434.112 102.886 465.943L228.217 418.568C227.535 418.354 226.827 418.201 226.145 417.97C150.148 389.475 92.7054 325.869 72.0756 247.37Z" fill="white"/>
<path d="M228.217 418.568C227.535 418.354 226.827 418.201 226.144 417.97C217.934 414.862 209.893 411.323 202.056 407.368L89.1694 450.077C93.4494 455.628 98.031 460.939 102.894 465.986L228.217 418.568Z" fill="#F6F6E7"/>
<path d="M362.624 102.181V145.01H319.795V102.181H362.624Z" fill="#C9DA53"/>
<path d="M209.085 255.9C204.374 255.899 200.556 252.079 200.557 247.368C200.558 244.952 201.582 242.65 203.378 241.032L288.678 164.262C292.24 161.18 297.627 161.569 300.71 165.131C303.707 168.595 303.434 173.806 300.091 176.938L214.791 253.708C213.226 255.119 211.192 255.899 209.085 255.9Z" fill="#FFBF41"/>
<path d="M456.455 221.78C451.744 221.78 447.925 217.961 447.925 213.25V204.72C447.925 200.01 451.744 196.19 456.455 196.19C461.166 196.19 464.985 200.01 464.985 204.72V213.25C464.985 217.961 461.167 221.78 456.455 221.78Z" fill="#FFDB43"/>
<path d="M486.617 209.284C484.354 209.29 482.182 208.39 480.586 206.785L474.556 200.754C471.283 197.365 471.376 191.965 474.765 188.692C478.07 185.5 483.311 185.5 486.617 188.692L492.648 194.723C495.979 198.055 495.978 203.456 492.646 206.787C491.047 208.385 488.879 209.284 486.617 209.284Z" fill="#FFDB43"/>
<path d="M499.105 179.13H490.575C485.864 179.13 482.045 175.311 482.045 170.6C482.045 165.889 485.864 162.07 490.575 162.07H499.105C503.816 162.07 507.635 165.889 507.635 170.6C507.635 175.311 503.817 179.13 499.105 179.13Z" fill="#FFDB43"/>
<path d="M480.587 155.007C475.876 155.006 472.058 151.187 472.059 146.475C472.059 144.214 472.957 142.045 474.556 140.447L480.587 134.416C483.975 131.143 489.375 131.236 492.648 134.625C495.84 137.93 495.84 143.171 492.648 146.477L486.617 152.508C485.018 154.107 482.849 155.007 480.587 155.007Z" fill="#FFDB43"/>
<path d="M456.455 145.01C451.744 145.01 447.925 141.191 447.925 136.48V127.95C447.925 123.239 451.744 119.42 456.455 119.42C461.166 119.42 464.985 123.239 464.985 127.95V136.48C464.985 141.191 461.167 145.01 456.455 145.01Z" fill="#FFDB43"/>
<path d="M432.323 155.007C430.061 155.007 427.892 154.107 426.293 152.508L420.262 146.477C416.989 143.089 417.082 137.688 420.471 134.416C423.776 131.224 429.017 131.224 432.323 134.416L438.354 140.447C441.685 143.779 441.684 149.179 438.352 152.51C436.754 154.108 434.585 155.007 432.323 155.007Z" fill="#FFDB43"/>
<path d="M47.0143 8.53001L60.1932 35.2375L89.6644 39.5195L68.3393 60.3072L73.372 89.6589L47.0143 75.7977L20.6566 89.6589L25.6893 60.3072L4.36426 39.5195L33.8354 35.2375L47.0143 8.53001Z" fill="#FFDB43"/>
<path d="M504.939 462.037C500.882 447.658 491.54 435.346 478.786 427.567L475.272 422.295C455.566 392.827 424.58 372.79 389.622 366.91C384.958 366.245 380.638 369.486 379.972 374.15C379.329 378.656 382.337 382.873 386.807 383.731C412.022 388.011 435 400.821 451.899 420.018C437.692 422.574 425.266 431.107 417.779 443.45C408.593 459.903 414.484 480.687 430.937 489.874C447.39 499.061 468.175 493.17 477.361 476.717C480.87 469.943 482.765 462.448 482.897 454.82C491.973 468.002 492.699 485.217 484.766 499.116C482.362 503.168 483.698 508.401 487.75 510.805C491.802 513.208 497.035 511.872 499.438 507.82C499.515 507.69 499.589 507.559 499.659 507.425C507.408 493.607 509.31 477.264 504.939 462.037ZM462.485 468.391C457.932 476.641 447.554 479.637 439.306 475.084C431.056 470.531 428.06 460.154 432.613 451.905C432.639 451.859 432.664 451.812 432.69 451.766C437.724 443.524 446.214 437.999 455.789 436.737C457.272 436.696 458.74 437.037 460.054 437.726C467.253 441.744 467.637 459.162 462.485 468.391Z" fill="#2BB3CE"/>
<defs>
<linearGradient id="paint0_linear" x1="174.331" y1="127.95" x2="174.331" y2="502.58" gradientUnits="userSpaceOnUse">
<stop stop-color="#FF4B2B"/>
<stop offset="1" stop-color="#FF416C"/>
</linearGradient>
</defs>
</svg>
